<?xml version="1.0" encoding="UTF-8"?>
<svg width="455px" height="127px" viewBox="0 0 455 127" version="1.1" xmlns="http://www.w3.org/2000/svg" xmlns:xlink="http://www.w3.org/1999/xlink">
    <title>InterSystems Logo</title>
    <defs>
        <polygon id="path-1" points="0.0699066995 0.630708706 29.562558 0.630708706 29.562558 38.1685295 0.0699066995 38.1685295"></polygon>
        <polygon id="path-3" points="0 0.100653339 31.4655997 0.100653339 31.4655997 115.92719 0 115.92719"></polygon>
        <polygon id="path-5" points="0 126.110409 454.163652 126.110409 454.163652 0.545956245 0 0.545956245"></polygon>
    </defs>
    <g id="Page-1" stroke="none" stroke-width="1" fill="none" fill-rule="evenodd">
        <g id="InterSystems-Logo">
            <polygon id="Fill-1" fill="#323694" points="71 69 82 69 82 19 71 19"></polygon>
            <g id="Group-58">
                <path d="M118.238894,66.3672087 L109.079083,66.3672087 L109.079083,45.4438469 C109.079083,40.5772383 105.747958,38.4921085 102.278428,38.4921085 C98.8088972,38.4921085 95.4777726,40.5772383 95.4777726,45.4438469 L95.4777726,66.3672087 L86.3179619,66.3672087 L86.3179619,30.4985884 L95.4777726,30.4985884 L95.4777726,33.6262832 C97.073741,31.1933706 100.682459,29.5249534 103.874396,29.5249534 C111.160645,29.5249534 118.238894,34.5294218 118.238894,45.0960641 L118.238894,66.3672087 Z" id="Fill-2" fill="#323694"></path>
                <path d="M141.347828,58.0949925 L141.347828,66.3673654 L132.534423,66.3673654 C126.150549,66.3673654 123.374612,62.9608177 123.374612,57.1910707 L123.374612,38.7703347 L123.374612,30.4979618 L123.374612,22.3650153 L132.534423,22.3650153 L132.534423,30.4979618 L141.347828,30.4979618 L141.347828,38.7703347 L132.534423,38.7703347 L132.534423,55.2453672 C132.534423,56.9130011 132.951204,58.0949925 135.171954,58.0949925 L141.347828,58.0949925 Z" id="Fill-4" fill="#323694"></path>
                <path d="M153.422294,43.2188989 L153.422294,43.2886121 L166.95401,43.2886121 L166.95401,43.2188989 C166.676417,39.4653518 164.317261,37.1021524 160.222949,37.1021524 C156.128637,37.1021524 153.7687,39.5350651 153.422294,43.2188989 L153.422294,43.2188989 Z M153.422294,50.8654195 L153.422294,51.0745592 C153.422294,55.3145321 155.851044,58.0952275 160.222949,58.0952275 C163.414886,58.0952275 165.635636,56.5654534 166.537229,54.1325408 L175.837009,54.1325408 C174.379447,61.6404183 168.965978,66.3668171 160.222949,66.3668171 C149.952764,66.3668171 144.261702,59.8325746 144.261702,49.8925678 L144.261702,45.3040288 C144.261702,35.364022 149.952764,28.8297796 160.222949,28.8297796 C170.493917,28.8297796 176.183415,35.364022 176.183415,45.3040288 L176.183415,50.8654195 L153.422294,50.8654195 Z" id="Fill-6" fill="#323694"></path>
                <path d="M190.618132,66.3672087 L181.458321,66.3672087 L181.458321,30.4985884 L190.618132,30.4985884 L190.618132,34.3907786 C191.659695,32.0275792 194.712444,29.8727361 198.945162,29.8727361 L201.721099,29.8727361 L201.721099,38.8398912 L197.418787,38.8398912 C193.948475,38.8398912 190.618132,40.9250211 190.618132,45.7908463 L190.618132,66.3672087 Z" id="Fill-8" fill="#323694"></path>
                <path d="M206.115212,50.3094371 L215.691804,50.3094371 C216.246992,54.410767 219.438928,57.1217491 224.088428,57.1217491 C228.182739,57.1217491 231.028271,55.591975 231.028271,52.2559239 C231.028271,49.5441584 229.432302,48.0151676 226.031584,47.1120291 L217.84296,44.8874728 C210.417523,42.8712729 206.739211,37.6576649 206.739211,30.4983534 C206.739211,20.7659197 214.373429,16.3175904 222.839647,16.3175904 C232.554645,16.3175904 238.592113,22.0176242 239.632894,30.2899971 L230.056302,30.2899971 C229.224302,27.0220926 225.823584,25.5620317 222.700459,25.5620317 C218.814147,25.5620317 216.038992,27.0918058 216.038992,30.4983534 C216.038992,33.3479787 218.25896,34.5996833 220.896491,35.2944655 L228.807521,37.4493085 C236.301769,39.4655085 240.327269,44.0532642 240.327269,52.2559239 C240.327269,61.0147226 234.636207,66.3669737 224.088428,66.3669737 C213.471054,66.3669737 206.601587,59.9713744 206.115212,50.3094371" id="Fill-10" fill="#323694"></path>
                <path d="M262.520535,69.5647734 C260.577379,74.9867377 260.022973,78.9486411 253.638318,78.9486411 L246.837663,78.9486411 L246.837663,70.6770515 L250.654381,70.6770515 C252.319943,70.6770515 252.805537,69.8428429 253.08313,69.0783475 L254.123911,66.1582258 L241.355382,30.2896055 L251.001569,30.2896055 L258.98141,53.1594541 L266.962034,30.2896055 L276.608221,30.2896055 L262.520535,69.5647734 Z" id="Fill-12" fill="#323694"></path>
                <path d="M275.775596,54.0631409 L284.935407,54.0631409 C285.352188,56.8438362 288.612937,58.0947575 291.596874,58.0947575 C293.401624,58.0947575 296.107967,57.6780449 296.107967,55.3140621 C296.107967,53.8547846 295.067186,53.0205759 292.91603,52.5341501 L285.421,50.8657329 C281.53547,49.961811 276.607595,46.9030461 276.607595,39.8823778 C276.607595,32.8617095 282.922657,28.8293096 290.278499,28.8293096 C297.56553,28.8293096 303.533404,32.3055704 304.157403,40.4385169 L294.789593,40.4385169 C294.303217,38.1442474 292.291249,37.1016825 290.000905,37.1016825 C287.364156,37.1016825 285.837782,38.1442474 285.768188,39.8126646 C285.768188,41.3424387 287.016968,42.1069341 288.544125,42.4539336 L296.593561,44.2617772 C300.479873,45.165699 305.267778,47.8766812 305.267778,55.3140621 C305.267778,63.3083655 298.81431,66.3671304 291.320062,66.3671304 C283.894626,66.3671304 276.122001,62.5438701 275.775596,54.0631409" id="Fill-14" fill="#323694"></path>
                <path d="M339.314295,43.2188989 L339.314295,43.2886121 L352.846012,43.2886121 L352.846012,43.2188989 C352.568418,39.4653518 350.209262,37.1021524 346.114951,37.1021524 C342.020639,37.1021524 339.660701,39.5350651 339.314295,43.2188989 L339.314295,43.2188989 Z M339.314295,50.8654195 L339.314295,51.0745592 C339.314295,55.3145321 341.743045,58.0952275 346.114951,58.0952275 C349.306887,58.0952275 351.527637,56.5654534 352.42923,54.1325408 L361.729011,54.1325408 C360.271448,61.6404183 354.85798,66.3668171 346.114951,66.3668171 C335.844765,66.3668171 330.153703,59.8325746 330.153703,49.8925678 L330.153703,45.3040288 C330.153703,35.364022 335.844765,28.8297796 346.114951,28.8297796 C356.385918,28.8297796 362.075416,35.364022 362.075416,45.3040288 L362.075416,50.8654195 L339.314295,50.8654195 Z" id="Fill-16" fill="#323694"></path>
                <path d="M398.855489,66.3672087 L389.694896,66.3672087 L389.694896,45.4438469 C389.694896,40.6469516 386.363772,38.4921085 383.102241,38.4921085 C379.840711,38.4921085 376.509586,40.6469516 376.509586,45.4438469 L376.509586,66.3672087 L367.349775,66.3672087 L367.349775,30.4985884 L376.509586,30.4985884 L376.509586,33.4876401 C378.245524,31.0539442 381.506273,29.5249534 384.629398,29.5249534 C388.376522,29.5249534 391.77724,30.9153011 394.275584,34.2521355 C396.842739,31.1236574 400.52027,29.5249534 405.448144,29.5249534 C414.538361,29.5249534 421.199829,34.599135 421.199829,45.0960641 L421.199829,66.3672087 L412.040018,66.3672087 L412.040018,45.4438469 C412.040018,40.6469516 408.709675,38.4921085 405.448144,38.4921085 C402.185832,38.4921085 398.855489,40.6469516 398.855489,45.4438469 L398.855489,66.3672087 Z" id="Fill-18" fill="#323694"></path>
                <g id="Group-22" transform="translate(424.601094, 28.198601)">
                    <mask id="mask-2" fill="white">
                        <use xlink:href="#path-1"></use>
                    </mask>
                    <g id="Clip-21"></g>
                    <path d="M0.0699066995,25.86454 L9.22971742,25.86454 C9.64649897,28.6452354 12.9072477,29.8961566 15.8919666,29.8961566 C17.6959348,29.8961566 20.4022781,29.479444 20.4022781,27.1154613 C20.4022781,25.6561837 19.3614971,24.8219751 17.2103413,24.3355492 L9.71531093,22.667132 C5.82978085,21.7632102 0.901905897,18.7044453 0.901905897,11.683777 C0.901905897,4.66310863 7.21696748,0.630708706 14.57281,0.630708706 C21.8598406,0.630708706 27.8277145,4.10696956 28.4517139,12.239916 L19.0839034,12.239916 C18.5975279,9.94564653 16.5863419,8.90308159 14.2952163,8.90308159 C11.658467,8.90308159 10.1320925,9.94564653 10.0624986,11.6140637 C10.0624986,13.1438378 11.3112793,13.9083332 12.8384357,14.2553327 L20.8878716,16.0631763 C24.7741836,16.9670981 29.5628707,19.6780803 29.5628707,27.1154613 C29.5628707,35.1097646 23.1086213,38.1685295 15.6143729,38.1685295 C8.18893647,38.1685295 0.417094335,34.3452692 0.0699066995,25.86454" id="Fill-20" fill="#323694" mask="url(#mask-2)"></path>
                </g>
                <path d="M326.275367,58.0949925 L326.275367,66.3673654 L317.461962,66.3673654 C311.078088,66.3673654 308.302151,62.9608177 308.302151,57.1910707 L308.302151,38.7703347 L308.302151,30.4979618 L308.302151,22.3650153 L317.461962,22.3650153 L317.461962,30.4979618 L326.275367,30.4979618 L326.275367,38.7703347 L317.461962,38.7703347 L317.461962,55.2453672 C317.461962,56.9130011 317.878743,58.0949925 320.098711,58.0949925 L326.275367,58.0949925 Z" id="Fill-23" fill="#323694"></path>
                <g id="Group-27" transform="translate(0.000000, 10.182828)">
                    <mask id="mask-4" fill="white">
                        <use xlink:href="#path-3"></use>
                    </mask>
                    <g id="Clip-26"></g>
                    <polygon id="Fill-25" fill="#323694" mask="url(#mask-4)" points="15.7326826 7.98607875 -0.00023458624 0.100653339 -0.00023458624 100.156339 31.4655997 115.92719 31.4655997 98.3022809 15.7326826 90.4199886"></polygon>
                </g>
                <polygon id="Fill-28" fill="#00B4AE" points="31.4656779 108.485344 47.1985951 116.376252 47.1985951 16.3174337 15.7327608 0.54658288 15.7327608 18.1691418 31.4656779 26.0514341"></polygon>
                <path d="M90.6257472,108.052339 C90.4122737,113.284746 87.0373597,116.737508 81.2438615,116.737508 C75.2752056,116.737508 71.8635397,113.035658 71.8635397,107.518132 L71.8635397,100.327489 C71.8635397,94.8099625 75.2752056,91.1081128 81.2438615,91.1081128 C87.0373597,91.1081128 90.4122737,94.5608748 90.6257472,99.7940652 L85.8284586,99.7940652 C85.5797972,97.2663739 83.6608818,95.8423446 81.2438615,95.8423446 C78.6501197,95.8423446 76.6248585,97.4441818 76.6248585,100.327489 L76.6248585,107.518132 C76.6248585,110.401439 78.6501197,112.003276 81.2438615,112.003276 C83.6608818,112.003276 85.5797972,110.615278 85.8284586,108.052339 L90.6257472,108.052339 Z" id="Fill-30" fill="#323694"></path>
                <path d="M97.8401342,116.381735 L93.1491914,116.381735 L93.1491914,98.0134802 L97.8401342,98.0134802 L97.8401342,100.006965 C98.373427,98.7967747 99.9373352,97.6938961 102.10413,97.6938961 L103.525723,97.6938961 L103.525723,102.285568 L101.322958,102.285568 C99.5463582,102.285568 97.8401342,103.353199 97.8401342,105.844858 L97.8401342,116.381735 Z" id="Fill-32" fill="#323694"></path>
                <path d="M109.331967,104.883991 L109.331967,104.919239 L116.260862,104.919239 L116.260862,104.883991 C116.119329,102.961786 114.910428,101.751596 112.814009,101.751596 C110.71759,101.751596 109.50947,102.997818 109.331967,104.883991 L109.331967,104.883991 Z M109.331967,108.79968 L109.331967,108.906208 C109.331967,111.0775 110.575274,112.50153 112.814009,112.50153 C114.448293,112.50153 115.586036,111.718235 116.047389,110.472797 L120.80949,110.472797 C120.063505,114.317206 117.291478,116.737586 112.814009,116.737586 C107.554585,116.737586 104.641024,113.391352 104.641024,108.301505 L104.641024,105.951621 C104.641024,100.861774 107.554585,97.5155399 112.814009,97.5155399 C118.073432,97.5155399 120.986993,100.861774 120.986993,105.951621 L120.986993,108.79968 L109.331967,108.79968 Z" id="Fill-34" fill="#323694"></path>
                <path d="M127.937001,110.757525 C127.937001,111.647347 128.611828,112.608449 130.709029,112.608449 C133.125267,112.608449 135.044183,111.2557 135.044183,108.941848 L135.044183,108.337145 C132.379283,108.514952 129.820729,108.728009 128.931647,109.190936 C128.150475,109.582583 127.937001,109.97423 127.937001,110.757525 L127.937001,110.757525 Z M134.973025,104.421456 C134.653206,102.783587 133.480274,101.751205 131.561359,101.751205 C129.926293,101.751205 128.789331,102.534499 128.327979,103.780721 L123.601848,103.780721 C124.347832,99.9363115 127.084671,97.5151483 131.561359,97.5151483 C136.820782,97.5151483 139.735125,100.861382 139.735125,105.952013 L139.735125,116.381579 L135.044183,116.381579 L135.044183,114.281566 C134.191853,115.669564 132.73429,116.737195 129.926293,116.737195 C125.734237,116.737195 123.246059,114.673214 123.246059,111.291731 C123.246059,108.621481 124.170328,107.019643 126.728882,105.809453 C128.54067,104.954879 132.200997,104.670543 134.973025,104.456704 L134.973025,104.421456 Z" id="Fill-36" fill="#323694"></path>
                <path d="M153.400869,112.145522 L153.400869,116.381579 L148.887429,116.381579 C145.618079,116.381579 144.196487,114.637182 144.196487,111.682595 L144.196487,102.250163 L141.602745,102.250163 L141.602745,98.0133235 L144.196487,98.0133235 L144.196487,93.8493301 L148.887429,93.8493301 L148.887429,98.0133235 L153.400869,98.0133235 L153.400869,102.250163 L148.887429,102.250163 L148.887429,110.686245 C148.887429,111.540819 149.100903,112.145522 150.237864,112.145522 L153.400869,112.145522 Z" id="Fill-38" fill="#323694"></path>
                <mask id="mask-6" fill="white">
                    <use xlink:href="#path-5"></use>
                </mask>
                <g id="Clip-41"></g>
                <path d="M155.974827,116.381892 L160.66577,116.381892 L160.66577,98.0136369 L155.974827,98.0136369 L155.974827,116.381892 Z M155.974827,95.6285052 L160.66577,95.6285052 L160.66577,91.4637285 L155.974827,91.4637285 L155.974827,95.6285052 Z" id="Fill-40" fill="#323694" mask="url(#mask-6)"></path>
                <polygon id="Fill-42" fill="#323694" mask="url(#mask-6)" points="175.700324 98.0137152 180.639928 98.0137152 174.03007 116.38197 169.197593 116.38197 162.587735 98.0137152 167.527339 98.0137152 171.613832 109.725534"></polygon>
                <path d="M185.738973,104.883991 L185.738973,104.919239 L192.667868,104.919239 L192.667868,104.883991 C192.525553,102.961786 191.317434,101.751596 189.221015,101.751596 C187.124596,101.751596 185.916476,102.997818 185.738973,104.883991 L185.738973,104.883991 Z M185.738973,108.79968 L185.738973,108.906208 C185.738973,111.0775 186.98228,112.50153 189.221015,112.50153 C190.855299,112.50153 191.993042,111.718235 192.454395,110.472797 L197.216496,110.472797 C196.470511,114.317206 193.697702,116.737586 189.221015,116.737586 C183.961591,116.737586 181.04803,113.391352 181.04803,108.301505 L181.04803,105.951621 C181.04803,100.861774 183.961591,97.5155399 189.221015,97.5155399 C194.480438,97.5155399 197.393999,100.861774 197.393999,105.951621 L197.393999,108.79968 L185.738973,108.79968 Z" id="Fill-43" fill="#323694" mask="url(#mask-6)"></path>
                <path d="M211.960788,108.586311 C211.960788,111.07797 213.667012,112.145601 215.443612,112.145601 C217.220994,112.145601 218.925654,111.07797 218.925654,108.586311 L218.925654,105.666972 C218.925654,103.175312 217.220994,102.107682 215.443612,102.107682 C213.667012,102.107682 211.960788,103.175312 211.960788,105.666972 L211.960788,108.586311 Z M214.62647,116.737273 C210.894985,116.737273 207.270627,114.175117 207.270627,108.764118 L207.270627,105.489164 C207.270627,100.078949 210.894985,97.5152266 214.62647,97.5152266 C216.260754,97.5152266 218.109293,98.3698008 218.925654,99.6152391 L218.925654,91.4642768 L223.616596,91.4642768 L223.616596,116.381657 L218.925654,116.381657 L218.925654,114.63726 C218.109293,115.883482 216.260754,116.737273 214.62647,116.737273 L214.62647,116.737273 Z" id="Fill-44" fill="#323694" mask="url(#mask-6)"></path>
                <path d="M230.85022,110.757525 C230.85022,111.647347 231.525828,112.608449 233.622247,112.608449 C236.039267,112.608449 237.957401,111.2557 237.957401,108.941848 L237.957401,108.337145 C235.292501,108.514952 232.733947,108.728009 231.844865,109.190936 C231.063693,109.582583 230.85022,109.97423 230.85022,110.757525 L230.85022,110.757525 Z M237.887025,104.421456 C237.566424,102.783587 236.393492,101.751205 234.475359,101.751205 C232.840293,101.751205 231.70255,102.534499 231.241197,103.780721 L226.515066,103.780721 C227.261832,99.9363115 229.99789,97.5151483 234.475359,97.5151483 C239.734,97.5151483 242.648344,100.861382 242.648344,105.952013 L242.648344,116.381579 L237.957401,116.381579 L237.957401,114.281566 C237.105071,115.669564 235.647508,116.737195 232.840293,116.737195 C228.647455,116.737195 226.159277,114.673214 226.159277,111.291731 C226.159277,108.621481 227.083546,107.019643 229.6421,105.809453 C231.45467,104.954879 235.114215,104.670543 237.887025,104.456704 L237.887025,104.421456 Z" id="Fill-45" fill="#323694" mask="url(#mask-6)"></path>
                <path d="M256.037744,112.145522 L256.037744,116.381579 L251.524305,116.381579 C248.254955,116.381579 246.833362,114.637182 246.833362,111.682595 L246.833362,102.250163 L244.23962,102.250163 L244.23962,98.0133235 L246.833362,98.0133235 L246.833362,93.8493301 L251.524305,93.8493301 L251.524305,98.0133235 L256.037744,98.0133235 L256.037744,102.250163 L251.524305,102.250163 L251.524305,110.686245 C251.524305,111.540819 251.736996,112.145522 252.87474,112.145522 L256.037744,112.145522 Z" id="Fill-46" fill="#323694" mask="url(#mask-6)"></path>
                <path d="M262.374309,110.757525 C262.374309,111.647347 263.049918,112.608449 265.146337,112.608449 C267.563357,112.608449 269.481491,111.2557 269.481491,108.941848 L269.481491,108.337145 C266.816591,108.514952 264.258037,108.728009 263.368955,109.190936 C262.587783,109.582583 262.374309,109.97423 262.374309,110.757525 L262.374309,110.757525 Z M269.411115,104.421456 C269.091295,102.783587 267.917582,101.751205 265.999449,101.751205 C264.364383,101.751205 263.227421,102.534499 262.765287,103.780721 L258.039156,103.780721 C258.785922,99.9363115 261.521979,97.5151483 265.999449,97.5151483 C271.25809,97.5151483 274.172433,100.861382 274.172433,105.952013 L274.172433,116.381579 L269.481491,116.381579 L269.481491,114.281566 C268.629161,115.669564 267.171598,116.737195 264.364383,116.737195 C260.171545,116.737195 257.683367,114.673214 257.683367,111.291731 C257.683367,108.621481 258.607636,107.019643 261.16619,105.809453 C262.97876,104.954879 266.638305,104.670543 269.411115,104.456704 L269.411115,104.421456 Z" id="Fill-47" fill="#323694" mask="url(#mask-6)"></path>
                <path d="M293.989575,112.145522 L293.989575,116.381579 L289.476136,116.381579 C286.206786,116.381579 284.785193,114.637182 284.785193,111.682595 L284.785193,102.250163 L282.191451,102.250163 L282.191451,98.0133235 L284.785193,98.0133235 L284.785193,93.8493301 L289.476136,93.8493301 L289.476136,98.0133235 L293.989575,98.0133235 L293.989575,102.250163 L289.476136,102.250163 L289.476136,110.686245 C289.476136,111.540819 289.689609,112.145522 290.826571,112.145522 L293.989575,112.145522 Z" id="Fill-48" fill="#323694" mask="url(#mask-6)"></path>
                <path d="M300.553767,104.883991 L300.553767,104.919239 L307.483445,104.919239 L307.483445,104.883991 C307.341129,102.961786 306.13301,101.751596 304.036591,101.751596 C301.940172,101.751596 300.732053,102.997818 300.553767,104.883991 L300.553767,104.883991 Z M300.553767,108.79968 L300.553767,108.906208 C300.553767,111.0775 301.797856,112.50153 304.036591,112.50153 C305.670875,112.50153 306.808619,111.718235 307.269971,110.472797 L312.032072,110.472797 C311.286088,114.317206 308.514842,116.737586 304.036591,116.737586 C298.777168,116.737586 295.863607,113.391352 295.863607,108.301505 L295.863607,105.951621 C295.863607,100.861774 298.777168,97.5155399 304.036591,97.5155399 C309.296015,97.5155399 312.209576,100.861774 312.209576,105.951621 L312.209576,108.79968 L300.553767,108.79968 Z" id="Fill-49" fill="#323694" mask="url(#mask-6)"></path>
                <path d="M330.885377,109.689738 C330.388054,113.997074 327.545651,116.737821 322.78355,116.737821 C317.524127,116.737821 314.610566,113.391587 314.610566,108.300956 L314.610566,105.951856 C314.610566,100.861226 317.524127,97.5157749 322.78355,97.5157749 C327.545651,97.5157749 330.388054,100.256522 330.885377,104.563859 L326.194434,104.563859 C325.911367,102.855493 324.737654,101.751831 322.78355,101.751831 C320.544816,101.751831 319.301509,103.175077 319.301509,105.34637 L319.301509,108.906443 C319.301509,111.077735 320.544816,112.501765 322.78355,112.501765 C324.737654,112.501765 325.946555,111.434134 326.194434,109.689738 L330.885377,109.689738 Z" id="Fill-50" fill="#323694" mask="url(#mask-6)"></path>
                <path d="M349.961539,116.381735 L345.270596,116.381735 L345.270596,105.66705 C345.270596,103.175391 343.564373,102.10776 341.788555,102.10776 C340.011955,102.10776 338.305731,103.175391 338.305731,105.66705 L338.305731,116.381735 L333.614788,116.381735 L333.614788,91.4643551 L338.305731,91.4643551 L338.305731,99.6153174 C339.123655,98.3698792 340.970631,97.5153049 342.605697,97.5153049 C346.337182,97.5153049 349.961539,100.079028 349.961539,105.489243 L349.961539,116.381735 Z" id="Fill-51" fill="#323694" mask="url(#mask-6)"></path>
                <path d="M369.508907,116.381735 L364.817964,116.381735 L364.817964,105.66705 C364.817964,103.175391 363.11174,102.10776 361.335922,102.10776 C359.558541,102.10776 357.853099,103.175391 357.853099,105.66705 L357.853099,116.381735 L353.162156,116.381735 L353.162156,98.0134802 L357.853099,98.0134802 L357.853099,99.6153174 C358.671023,98.3698792 360.517998,97.5153049 362.153064,97.5153049 C365.88455,97.5153049 369.508907,100.079028 369.508907,105.489243 L369.508907,116.381735 Z" id="Fill-52" fill="#323694" mask="url(#mask-6)"></path>
                <path d="M383.973885,105.346605 C383.973885,103.175312 382.730578,101.751283 380.491062,101.751283 C378.253109,101.751283 377.009802,103.175312 377.009802,105.346605 L377.009802,108.906678 C377.009802,111.07797 378.253109,112.502 380.491062,112.502 C382.730578,112.502 383.973885,111.07797 383.973885,108.906678 L383.973885,105.346605 Z M372.318859,105.952091 C372.318859,100.861461 375.23242,97.5152266 380.491062,97.5152266 C385.751267,97.5152266 388.664828,100.861461 388.664828,105.952091 L388.664828,108.301191 C388.664828,113.391822 385.751267,116.737273 380.491062,116.737273 C375.23242,116.737273 372.318859,113.391822 372.318859,108.301191 L372.318859,105.952091 Z" id="Fill-53" fill="#323694" mask="url(#mask-6)"></path>
                <path d="M398.26136,112.145522 L398.26136,116.381579 L395.987438,116.381579 C392.718088,116.381579 391.296495,114.637182 391.296495,111.682595 L391.296495,91.4641985 L395.987438,91.4641985 L395.987438,110.686245 C395.987438,111.540819 396.200129,112.145522 397.337873,112.145522 L398.26136,112.145522 Z" id="Fill-54" fill="#323694" mask="url(#mask-6)"></path>
                <path d="M411.445029,105.346605 C411.445029,103.175312 410.201722,101.751283 407.962205,101.751283 C405.724252,101.751283 404.480163,103.175312 404.480163,105.346605 L404.480163,108.906678 C404.480163,111.07797 405.724252,112.502 407.962205,112.502 C410.201722,112.502 411.445029,111.07797 411.445029,108.906678 L411.445029,105.346605 Z M399.790003,105.952091 C399.790003,100.861461 402.703564,97.5152266 407.962205,97.5152266 C413.222411,97.5152266 416.135972,100.861461 416.135972,105.952091 L416.135972,108.301191 C416.135972,113.391822 413.222411,116.737273 407.962205,116.737273 C402.703564,116.737273 399.790003,113.391822 399.790003,108.301191 L399.790003,105.952091 Z" id="Fill-55" fill="#323694" mask="url(#mask-6)"></path>
                <path d="M423.103652,107.269044 C423.103652,109.760704 424.809876,110.828334 426.586476,110.828334 C428.362294,110.828334 430.068518,109.760704 430.068518,107.269044 L430.068518,105.667207 C430.068518,103.175547 428.362294,102.107134 426.586476,102.107134 C424.809876,102.107134 423.103652,103.175547 423.103652,105.667207 L423.103652,107.269044 Z M423.209998,116.48842 C423.565787,118.090257 424.702748,119.05136 426.586476,119.05136 C428.824429,119.05136 430.068518,117.62733 430.068518,115.456038 L430.068518,113.319994 C429.251376,114.566216 427.403618,115.42079 425.768552,115.42079 C422.037849,115.42079 418.412709,112.85785 418.412709,107.446852 L418.412709,105.489399 C418.412709,100.078401 422.037849,97.5154616 425.768552,97.5154616 C427.403618,97.5154616 429.251376,98.3700358 430.068518,99.615474 L430.068518,98.0136369 L434.759461,98.0136369 L434.759461,114.851335 C434.759461,119.941182 431.845118,123.287416 426.586476,123.287416 C421.931503,123.287416 419.088318,120.653197 418.519837,116.48842 L423.209998,116.48842 Z" id="Fill-56" fill="#323694" mask="url(#mask-6)"></path>
                <path d="M446.950204,118.125976 C445.955558,120.902754 445.670927,122.931487 442.401577,122.931487 L438.918753,122.931487 L438.918753,118.695431 L440.873638,118.695431 C441.725968,118.695431 441.97463,118.268535 442.116945,117.876888 L442.650238,116.381579 L436.111537,98.0133235 L441.051142,98.0133235 L445.137634,109.725142 L449.224126,98.0133235 L454.163731,98.0133235 L446.950204,118.125976 Z" id="Fill-57" fill="#323694" mask="url(#mask-6)"></path>
            </g>
        </g>
    </g>
</svg>